<svg xmlns="http://www.w3.org/2000/svg" viewBox="0 0 200 200" width="200" height="200" role="presentation"><defs>
    <linearGradient id="pedra" x1="0" y1="0" x2="0" y2="1">
      <stop offset="0" stop-color="#3c4560"/><stop offset=".5" stop-color="#1b2030"/>
      <stop offset="1" stop-color="#39425c"/>
    </linearGradient>
    <linearGradient id="runa" x1="0" y1="0" x2="0" y2="1">
      <stop offset="0" stop-color="#8ef5ff"/><stop offset="1" stop-color="#3aa6d8"/>
    </linearGradient>
  </defs>
  <circle cx="100" cy="100" r="84" fill="none" stroke="url(#pedra)" stroke-width="15"/>
  <circle cx="100" cy="100" r="76" fill="none" stroke="#6fe4ff" stroke-width="1" opacity=".35"/>
  <circle cx="100" cy="100" r="92" fill="none" stroke="#6fe4ff" stroke-width="1" opacity=".35"/>
  <g><animateTransform attributeName="transform" type="rotate" values="0 100 100;360 100 100" dur="26s" repeatCount="indefinite"/><g transform="translate(100 16) rotate(0)" stroke="url(#runa)"
               stroke-width="1.8" stroke-linecap="round" fill="none" opacity=".85">
      <animate attributeName="opacity" values=".28;1;.28" dur="3.4s" begin="0s" repeatCount="indefinite" calcMode="spline" keySplines=".4 0 .6 1;.4 0 .6 1" keyTimes="0;0.5;1"/>
      <path d="M-4-5 L-4 5 M-4 0 L4-4"/>
    </g><g transform="translate(142 27.25) rotate(30)" stroke="url(#runa)"
               stroke-width="1.8" stroke-linecap="round" fill="none" opacity=".85">
      <animate attributeName="opacity" values=".28;1;.28" dur="3.4s" begin="0.55s" repeatCount="indefinite" calcMode="spline" keySplines=".4 0 .6 1;.4 0 .6 1" keyTimes="0;0.5;1"/>
      <path d="M0-5 L0 5 M-4-2 L0 1 L4-2"/>
    </g><g transform="translate(172.75 58) rotate(60)" stroke="url(#runa)"
               stroke-width="1.8" stroke-linecap="round" fill="none" opacity=".85">
      <animate attributeName="opacity" values=".28;1;.28" dur="3.4s" begin="1.1s" repeatCount="indefinite" calcMode="spline" keySplines=".4 0 .6 1;.4 0 .6 1" keyTimes="0;0.5;1"/>
      <path d="M-4-5 L4-5 M0-5 L0 5"/>
    </g><g transform="translate(184 100) rotate(90)" stroke="url(#runa)"
               stroke-width="1.8" stroke-linecap="round" fill="none" opacity=".85">
      <animate attributeName="opacity" values=".28;1;.28" dur="3.4s" begin="1.6500000000000001s" repeatCount="indefinite" calcMode="spline" keySplines=".4 0 .6 1;.4 0 .6 1" keyTimes="0;0.5;1"/>
      <path d="M-4 5 L0-5 L4 5 M-2 1 L2 1"/>
    </g><g transform="translate(172.75 142) rotate(120)" stroke="url(#runa)"
               stroke-width="1.8" stroke-linecap="round" fill="none" opacity=".85">
      <animate attributeName="opacity" values=".28;1;.28" dur="3.4s" begin="2.2s" repeatCount="indefinite" calcMode="spline" keySplines=".4 0 .6 1;.4 0 .6 1" keyTimes="0;0.5;1"/>
      <path d="M-4-5 L-4 5 L4 5"/>
    </g><g transform="translate(142 172.75) rotate(150)" stroke="url(#runa)"
               stroke-width="1.8" stroke-linecap="round" fill="none" opacity=".85">
      <animate attributeName="opacity" values=".28;1;.28" dur="3.4s" begin="2.75s" repeatCount="indefinite" calcMode="spline" keySplines=".4 0 .6 1;.4 0 .6 1" keyTimes="0;0.5;1"/>
      <path d="M-4-4 L4-4 M-4 0 L2 0 M-4 4 L4 4"/>
    </g><g transform="translate(100 184) rotate(180)" stroke="url(#runa)"
               stroke-width="1.8" stroke-linecap="round" fill="none" opacity=".85">
      <animate attributeName="opacity" values=".28;1;.28" dur="3.4s" begin="0s" repeatCount="indefinite" calcMode="spline" keySplines=".4 0 .6 1;.4 0 .6 1" keyTimes="0;0.5;1"/>
      <path d="M-4-5 L-4 5 M-4 0 L4-4"/>
    </g><g transform="translate(58 172.75) rotate(210)" stroke="url(#runa)"
               stroke-width="1.8" stroke-linecap="round" fill="none" opacity=".85">
      <animate attributeName="opacity" values=".28;1;.28" dur="3.4s" begin="0.55s" repeatCount="indefinite" calcMode="spline" keySplines=".4 0 .6 1;.4 0 .6 1" keyTimes="0;0.5;1"/>
      <path d="M0-5 L0 5 M-4-2 L0 1 L4-2"/>
    </g><g transform="translate(27.25 142) rotate(240)" stroke="url(#runa)"
               stroke-width="1.8" stroke-linecap="round" fill="none" opacity=".85">
      <animate attributeName="opacity" values=".28;1;.28" dur="3.4s" begin="1.1s" repeatCount="indefinite" calcMode="spline" keySplines=".4 0 .6 1;.4 0 .6 1" keyTimes="0;0.5;1"/>
      <path d="M-4-5 L4-5 M0-5 L0 5"/>
    </g><g transform="translate(16 100) rotate(270)" stroke="url(#runa)"
               stroke-width="1.8" stroke-linecap="round" fill="none" opacity=".85">
      <animate attributeName="opacity" values=".28;1;.28" dur="3.4s" begin="1.6500000000000001s" repeatCount="indefinite" calcMode="spline" keySplines=".4 0 .6 1;.4 0 .6 1" keyTimes="0;0.5;1"/>
      <path d="M-4 5 L0-5 L4 5 M-2 1 L2 1"/>
    </g><g transform="translate(27.25 58) rotate(300)" stroke="url(#runa)"
               stroke-width="1.8" stroke-linecap="round" fill="none" opacity=".85">
      <animate attributeName="opacity" values=".28;1;.28" dur="3.4s" begin="2.2s" repeatCount="indefinite" calcMode="spline" keySplines=".4 0 .6 1;.4 0 .6 1" keyTimes="0;0.5;1"/>
      <path d="M-4-5 L-4 5 L4 5"/>
    </g><g transform="translate(58 27.25) rotate(330)" stroke="url(#runa)"
               stroke-width="1.8" stroke-linecap="round" fill="none" opacity=".85">
      <animate attributeName="opacity" values=".28;1;.28" dur="3.4s" begin="2.75s" repeatCount="indefinite" calcMode="spline" keySplines=".4 0 .6 1;.4 0 .6 1" keyTimes="0;0.5;1"/>
      <path d="M-4-4 L4-4 M-4 0 L2 0 M-4 4 L4 4"/>
    </g></g></svg>