<svg xmlns="http://www.w3.org/2000/svg" viewBox="0 0 200 200" width="200" height="200" role="presentation">
  <style>
    @keyframes gc-acena { 0%,100% { transform: rotate(-8deg) } 50% { transform: rotate(20deg) } }
    @keyframes gc-respira { 0%,100% { transform: scale(1,1) } 50% { transform: scale(1.02,1.03) } }
    .bicho { animation: gc-respira 3.2s ease-in-out infinite; transform-origin: 100px 150px }
    .braco { animation: gc-acena 1.1s ease-in-out infinite; transform-origin: 56px 118px }
    @media (prefers-reduced-motion: reduce) { .bicho, .braco { animation: none } }
  </style>
  <g class="bicho">
    <ellipse cx="78" cy="176" rx="16" ry="9" fill="#6d4d34"/>
    <ellipse cx="124" cy="176" rx="16" ry="9" fill="#6d4d34"/>
    <ellipse cx="102" cy="136" rx="50" ry="42" fill="#8d6748"/>
    <ellipse cx="104" cy="146" rx="34" ry="30" fill="#a3805c"/>
    <path class="braco" d="M58 118 q-16 -12 -14 -30" fill="none" stroke="#8d6748" stroke-width="15" stroke-linecap="round"/>
    <ellipse cx="146" cy="132" rx="12" ry="16" transform="rotate(14 146 132)" fill="#8d6748"/>
    <ellipse cx="70" cy="44" rx="10" ry="11" fill="#6d4d34"/>
    <ellipse cx="126" cy="42" rx="10" ry="11" fill="#6d4d34"/>
    <ellipse cx="98" cy="74" rx="46" ry="36" fill="#8d6748"/>
    <ellipse cx="122" cy="86" rx="24" ry="17" fill="#a3805c"/>
    <ellipse cx="136" cy="84" rx="6" ry="4.6" fill="#4a3222"/>
    <path d="M116 94 q6 6 13 1" fill="none" stroke="#4a3222" stroke-width="3" stroke-linecap="round"/>
    <path d="M78 66 q6 6 12 0 M104 64 q6 6 12 0" fill="none" stroke="#4a3222" stroke-width="3.4" stroke-linecap="round"/>
  </g>
</svg>
