<svg width="100" height="100" viewBox="0 0 100 100" fill="none" xmlns="http://www.w3.org/2000/svg">
<rect width="100" height="100" rx="12" fill="#6467F2"/>
<path transform="translate(27.303 27.000) scale(0.10110)" fill-rule="evenodd" clip-rule="evenodd" d="M104 0L219 0L219 455L148 455L148 260L106 261L106 262L100 263L96 265L95 267L93 267L87 273L86 277L83 280L80 294L79 294L79 303L78 303L78 424L77 424L76 441L75 441L72 455L0 455L0 452L2 450L4 440L5 440L6 424L7 424L7 306L8 306L8 294L9 294L10 280L11 280L11 276L12 276L12 272L13 272L16 259L22 247L27 242L27 240L39 230L47 226L50 226L52 224L55 224L55 222L40 215L27 203L27 201L22 196L15 182L14 176L13 176L13 172L12 172L12 168L10 164L10 158L9 158L9 150L8 150L8 88L9 88L11 68L12 68L13 60L17 52L17 49L21 41L23 40L24 36L43 17L45 17L46 15L58 9L61 9L61 8L64 8L70 5L84 3L84 2L91 2L91 1L104 1ZM260 0L331 0L331 390L449 390L449 455L260 455ZM106 65L106 66L102 66L102 67L99 67L93 70L87 76L87 78L85 79L82 85L81 92L80 92L80 97L79 97L79 160L80 160L81 170L87 182L92 187L94 187L100 192L111 194L111 195L148 195L148 65Z" fill="white"/>
</svg>
